<svg xmlns="http://www.w3.org/2000/svg" width="524" height="532" viewBox="0 0 524 532">
  <path fill-rule="evenodd" d="M 248 39 L 233 45 L 74 137 L 63 147 L 59 153 L 55 165 L 55 365 L 57 372 L 63 383 L 76 394 L 235 486 L 249 491 L 264 491 L 279 485 L 441 391 L 452 379 L 457 365 L 457 165 L 451 150 L 442 140 L 416 125 L 416 357 L 262 447 L 255 450 L 101 361 L 96 357 L 96 173 L 256 80 L 334 125 L 334 304 L 256 350 L 181 307 L 178 304 L 178 225 L 176 225 L 147 238 L 141 244 L 138 250 L 137 315 L 142 328 L 153 338 L 236 386 L 250 392 L 263 392 L 273 388 L 361 337 L 367 332 L 373 322 L 375 315 L 375 101 L 273 42 L 263 39 Z" fill="black" stroke="none"/>
</svg>