<svg xmlns="http://www.w3.org/2000/svg" width="1161" height="830" viewBox="0 0 1161 830">
  <path fill-rule="evenodd" d="M 0 0 L 0 233 L 88 233 L 89 234 L 89 595 L 88 596 L 0 596 L 0 829 L 437 829 L 437 596 L 344 596 L 343 595 L 343 368 L 344 367 L 348 367 L 352 372 L 352 373 L 355 376 L 357 380 L 360 383 L 360 384 L 366 391 L 368 395 L 377 406 L 377 407 L 385 417 L 387 421 L 396 432 L 396 433 L 404 443 L 406 447 L 409 450 L 409 451 L 415 458 L 417 462 L 426 473 L 426 474 L 434 484 L 436 488 L 445 499 L 445 500 L 453 510 L 455 514 L 464 525 L 466 529 L 475 540 L 477 544 L 483 551 L 485 555 L 494 566 L 496 570 L 505 581 L 507 585 L 513 592 L 515 596 L 524 607 L 526 611 L 532 618 L 534 622 L 543 633 L 545 637 L 554 648 L 556 652 L 562 659 L 564 663 L 567 666 L 567 667 L 570 670 L 570 671 L 573 674 L 573 675 L 579 683 L 581 683 L 584 680 L 584 679 L 592 669 L 594 665 L 597 662 L 597 661 L 603 654 L 605 650 L 614 639 L 614 638 L 622 628 L 624 624 L 633 613 L 633 612 L 641 602 L 643 598 L 646 595 L 646 594 L 652 587 L 654 583 L 663 572 L 663 571 L 671 561 L 673 557 L 682 546 L 684 542 L 687 539 L 687 538 L 690 535 L 692 531 L 701 520 L 703 516 L 712 505 L 714 501 L 717 498 L 717 497 L 720 494 L 722 490 L 731 479 L 733 475 L 739 468 L 741 464 L 750 453 L 752 449 L 761 438 L 763 434 L 769 427 L 771 423 L 780 412 L 782 408 L 788 401 L 790 397 L 799 386 L 801 382 L 804 379 L 804 378 L 807 375 L 807 374 L 810 371 L 810 370 L 812 368 L 816 368 L 817 369 L 817 595 L 816 596 L 723 596 L 723 829 L 1160 829 L 1160 596 L 1072 596 L 1071 595 L 1071 234 L 1072 233 L 1160 233 L 1160 0 L 815 0 L 815 2 L 813 4 L 813 5 L 807 12 L 805 16 L 802 19 L 800 23 L 797 26 L 797 27 L 794 30 L 792 34 L 786 41 L 784 45 L 781 48 L 779 52 L 773 59 L 773 60 L 768 66 L 766 70 L 760 77 L 758 81 L 755 84 L 755 85 L 752 88 L 752 89 L 747 95 L 745 99 L 742 102 L 742 103 L 739 106 L 737 110 L 731 117 L 729 121 L 726 124 L 724 128 L 718 135 L 718 136 L 713 142 L 711 146 L 705 153 L 703 157 L 700 160 L 700 161 L 697 164 L 697 165 L 692 171 L 690 175 L 687 178 L 687 179 L 684 182 L 682 186 L 676 193 L 674 197 L 671 200 L 669 204 L 663 211 L 663 212 L 658 218 L 656 222 L 653 225 L 653 226 L 650 229 L 648 233 L 645 236 L 645 237 L 642 240 L 640 244 L 637 247 L 635 251 L 629 258 L 629 259 L 624 265 L 622 269 L 616 276 L 614 280 L 608 287 L 608 288 L 603 294 L 601 298 L 598 301 L 598 302 L 595 305 L 593 309 L 590 312 L 590 313 L 587 316 L 585 320 L 582 323 L 578 323 L 574 318 L 574 317 L 571 314 L 569 310 L 566 307 L 564 303 L 558 296 L 558 295 L 553 289 L 551 285 L 548 282 L 548 281 L 545 278 L 543 274 L 537 267 L 535 263 L 532 260 L 530 256 L 527 253 L 527 252 L 524 249 L 522 245 L 516 238 L 514 234 L 511 231 L 509 227 L 503 220 L 503 219 L 498 213 L 496 209 L 490 202 L 488 198 L 485 195 L 485 194 L 482 191 L 482 190 L 477 184 L 475 180 L 472 177 L 472 176 L 469 173 L 467 169 L 461 162 L 459 158 L 456 155 L 454 151 L 448 144 L 448 143 L 443 137 L 441 133 L 438 130 L 438 129 L 435 126 L 433 122 L 430 119 L 430 118 L 427 115 L 425 111 L 422 108 L 420 104 L 414 97 L 414 96 L 409 90 L 407 86 L 401 79 L 399 75 L 396 72 L 396 71 L 393 68 L 393 67 L 388 61 L 386 57 L 383 54 L 383 53 L 380 50 L 378 46 L 372 39 L 370 35 L 367 32 L 365 28 L 359 21 L 359 20 L 354 14 L 352 10 L 346 3 L 346 0 Z" fill="black" stroke="none"/>
</svg>