<svg xmlns="http://www.w3.org/2000/svg" width="1290" height="726" viewBox="0 0 1290 726">
  <path fill-rule="evenodd" d="M 949 584 L 946 589 L 947 598 L 953 602 L 962 600 L 965 595 L 965 589 L 963 585 L 960 583 Z M 850 484 L 806 594 L 806 598 L 836 598 L 842 580 L 844 578 L 897 578 L 904 598 L 937 598 L 937 594 L 893 484 Z M 869 510 L 874 511 L 889 553 L 888 559 L 852 558 L 854 547 Z M 759 484 L 759 598 L 791 598 L 791 484 Z M 632 484 L 632 598 L 701 598 L 715 595 L 726 589 L 734 581 L 738 573 L 743 550 L 743 535 L 740 518 L 736 508 L 729 498 L 713 488 L 701 485 Z M 665 508 L 683 508 L 693 510 L 699 513 L 707 521 L 710 527 L 712 537 L 711 553 L 705 565 L 699 570 L 683 575 L 664 574 Z M 580 484 L 580 598 L 611 598 L 611 484 Z M 446 484 L 446 489 L 481 597 L 528 598 L 560 501 L 564 484 L 533 484 L 508 567 L 502 566 L 479 484 Z M 324 484 L 324 598 L 356 598 L 357 511 L 389 511 L 397 514 L 403 520 L 406 526 L 408 537 L 408 598 L 439 598 L 438 521 L 435 510 L 431 502 L 425 495 L 411 487 L 397 484 Z M 364 249 L 364 252 L 372 270 L 393 305 L 408 324 L 429 346 L 451 363 L 476 377 L 503 387 L 520 391 L 533 392 L 536 394 L 537 429 L 827 428 L 827 122 L 536 122 L 535 164 L 527 164 L 499 170 L 480 176 L 456 186 L 433 198 L 409 213 L 378 236 Z M 789 315 L 788 320 L 757 340 L 718 358 L 669 375 L 629 385 L 596 391 L 565 394 L 547 394 L 536 392 L 537 370 L 572 370 L 588 368 L 611 363 L 639 353 L 660 343 L 692 323 L 737 287 L 744 288 Z M 522 238 L 536 239 L 535 319 L 530 319 L 524 316 L 505 300 L 494 285 L 485 266 L 485 261 L 494 252 L 504 245 Z M 536 215 L 539 213 L 563 213 L 588 220 L 600 226 L 613 235 L 627 248 L 627 252 L 594 280 L 588 280 L 576 261 L 566 249 L 555 242 L 536 237 Z M 525 187 L 536 188 L 535 214 L 512 218 L 495 224 L 479 232 L 451 252 L 447 256 L 447 261 L 460 289 L 473 307 L 486 320 L 498 329 L 511 336 L 536 344 L 535 368 L 527 368 L 502 360 L 483 350 L 461 333 L 446 317 L 431 296 L 412 258 L 412 253 L 438 226 L 459 211 L 482 199 L 495 194 Z M 536 343 L 537 323 L 549 325 L 574 324 L 590 319 L 606 311 L 632 292 L 658 266 L 669 252 L 667 246 L 645 224 L 618 205 L 595 194 L 575 188 L 563 186 L 537 186 L 537 163 L 565 163 L 589 167 L 619 176 L 635 183 L 658 196 L 679 211 L 691 221 L 716 247 L 716 252 L 687 282 L 651 311 L 632 323 L 610 334 L 586 342 L 569 345 L 545 345 Z" fill="black" stroke="none"/>
</svg>