<svg version="1.0" xmlns="http://www.w3.org/2000/svg"
 width="450.000000pt" height="452.000000pt" viewBox="0 0 450.000000 452.000000"
 preserveAspectRatio="xMidYMid meet">
<g transform="translate(0.000000,452.000000) scale(0.100000,-0.100000)"
fill="#ffd700" stroke="none">
<path d="M2230 4070 c0 -8 -5 -58 -11 -110 -5 -52 -14 -138 -19 -190 -9 -98
-33 -344 -51 -510 -16 -160 -31 -321 -36 -395 -2 -38 -8 -73 -12 -78 -4 -4
-17 12 -30 35 -12 24 -45 86 -73 138 -84 157 -110 176 -69 53 10 -32 24 -78
31 -103 7 -25 16 -54 20 -65 17 -45 42 -143 39 -154 -3 -9 -68 39 -189 143
-29 25 -133 112 -168 141 -14 11 -30 25 -36 30 -6 6 -51 44 -101 85 -49 41
-99 83 -110 93 -43 40 -75 59 -75 45 0 -8 9 -23 19 -35 11 -11 37 -43 58 -70
42 -55 338 -412 420 -507 29 -33 49 -64 45 -68 -4 -4 -26 -2 -47 6 -22 8 -94
31 -160 51 -66 20 -130 40 -143 46 -13 5 -30 6 -39 1 -11 -7 -1 -16 43 -40 33
-16 93 -49 134 -72 41 -23 83 -44 93 -47 9 -3 17 -9 17 -14 0 -12 -30 -18
-160 -30 -270 -24 -307 -28 -350 -33 -25 -3 -115 -13 -200 -21 -442 -44 -549
-56 -575 -66 -32 -11 -15 -14 245 -39 52 -5 160 -16 240 -25 185 -20 332 -35
440 -45 346 -31 379 -37 336 -63 -22 -13 -128 -71 -219 -119 -81 -43 -61 -57
34 -25 41 13 108 35 149 47 41 12 92 29 113 36 21 8 43 12 48 8 7 -4 -47 -81
-81 -114 -3 -3 -23 -27 -45 -55 -22 -27 -52 -63 -66 -80 -23 -26 -114 -133
-181 -215 -12 -14 -33 -39 -47 -56 -14 -16 -37 -45 -51 -63 -14 -19 -35 -45
-47 -60 -23 -26 -29 -41 -17 -41 6 0 66 46 124 96 14 12 81 68 150 125 69 57
127 106 130 109 3 3 28 23 55 45 28 21 52 42 55 45 18 21 143 120 151 120 14
0 12 -12 -22 -123 -17 -56 -35 -115 -39 -132 -5 -16 -16 -55 -24 -85 -9 -30
-16 -58 -16 -62 0 -21 40 37 78 112 65 130 96 183 107 181 6 0 13 -33 16 -73
22 -249 29 -316 70 -698 5 -52 14 -140 19 -195 5 -55 14 -145 19 -200 6 -55
10 -104 11 -110 0 -5 8 -2 17 8 12 12 19 43 24 109 4 51 15 158 23 238 22 192
35 323 45 445 12 140 41 410 49 458 l7 40 32 -59 c18 -32 53 -100 79 -151 26
-51 51 -90 56 -87 11 7 10 40 -1 62 -5 9 -17 46 -26 82 -10 36 -24 85 -33 110
-8 25 -18 59 -22 75 -4 17 -11 38 -15 49 -7 17 -6 17 21 3 16 -9 43 -29 59
-44 17 -15 53 -46 80 -68 28 -22 64 -52 80 -66 17 -15 91 -77 165 -138 74 -62
144 -120 155 -129 76 -65 116 -94 121 -89 8 7 -5 28 -41 69 -16 18 -48 56 -70
83 -21 28 -42 52 -45 55 -3 3 -59 70 -125 150 -65 80 -121 147 -124 150 -4 3
-28 32 -56 65 -27 33 -58 69 -67 79 -19 21 -23 36 -10 36 4 0 55 -15 113 -33
57 -19 131 -41 164 -51 33 -9 70 -22 81 -28 16 -7 27 -7 40 1 17 9 17 10 2 11
-9 0 -23 6 -30 13 -7 6 -51 31 -98 55 -158 80 -171 89 -158 99 12 9 85 18 363
44 143 13 461 46 685 70 52 6 125 14 162 18 77 8 95 18 47 25 -19 2 -64 9
-100 15 -37 6 -83 11 -104 11 -21 0 -65 4 -99 10 -33 5 -110 14 -171 20 -60 5
-157 15 -215 21 -100 10 -146 14 -410 38 -131 12 -170 19 -170 31 0 4 8 10 18
14 23 7 223 116 253 138 l24 17 -25 0 c-14 1 -65 -12 -115 -28 -49 -15 -124
-38 -165 -51 -41 -13 -81 -25 -87 -27 -21 -8 -15 10 13 42 14 17 63 75 108
129 44 55 110 134 146 177 36 42 72 85 80 95 8 11 47 57 86 104 119 143 138
188 47 108 -28 -24 -99 -83 -159 -132 -60 -49 -113 -95 -119 -101 -5 -6 -32
-28 -60 -50 -27 -22 -55 -44 -61 -50 -6 -5 -32 -28 -59 -50 -27 -22 -73 -61
-103 -87 -58 -50 -79 -60 -67 -30 3 9 9 31 12 47 3 17 9 35 13 40 4 6 10 21
13 35 2 14 19 70 36 125 31 102 37 135 23 135 -4 0 -15 -15 -24 -32 -67 -130
-142 -268 -144 -266 -6 7 -31 220 -55 473 -22 237 -29 310 -44 440 -8 77 -19
189 -25 249 -6 75 -14 114 -25 125 -13 13 -15 13 -15 1z"/>
<path d="M1122 3 c621 -2 1635 -2 2255 0 621 1 113 2 -1127 2 -1240 0 -1748
-1 -1128 -2z"/>
</g>
</svg>