<svg xmlns="http://www.w3.org/2000/svg" width="200" height="200" viewBox="0 0 200 200">
  <path fill-rule="evenodd" d="M 151 123 L 144 128 L 143 130 L 143 139 L 145 143 L 149 146 L 159 146 L 163 143 L 164 139 L 159 138 L 156 141 L 152 141 L 148 137 L 148 133 L 149 131 L 153 128 L 155 128 L 159 131 L 164 130 L 164 128 L 160 124 Z M 133 123 L 132 124 L 132 146 L 136 146 L 137 145 L 137 124 Z M 106 124 L 106 145 L 107 146 L 111 146 L 112 140 L 115 139 L 120 146 L 125 146 L 125 143 L 122 139 L 125 135 L 125 132 L 126 131 L 125 127 L 122 124 L 119 124 L 118 123 L 108 123 Z M 112 130 L 113 129 L 119 129 L 120 132 L 117 134 L 113 134 L 112 133 Z M 86 123 L 85 124 L 85 146 L 101 146 L 101 141 L 91 141 L 90 140 L 90 124 Z M 60 124 L 60 145 L 61 146 L 78 146 L 78 141 L 67 141 L 66 140 L 67 137 L 76 137 L 76 133 L 75 132 L 67 132 L 66 130 L 67 129 L 76 129 L 78 128 L 78 124 L 77 123 L 62 123 Z M 34 123 L 33 124 L 33 127 L 36 132 L 41 146 L 47 146 L 55 127 L 55 124 L 54 123 L 51 123 L 49 125 L 47 132 L 44 137 L 42 134 L 39 124 Z M 140 50 L 125 50 L 124 49 L 119 51 L 107 70 L 100 78 L 94 73 L 80 51 L 78 50 L 59 50 L 58 51 L 99 111 L 107 101 L 110 95 L 139 54 Z" fill="black" stroke="none" stroke-linejoin="round"/>
</svg>